<svg xmlns="http://www.w3.org/2000/svg" version="1.1" xmlns:xlink="http://www.w3.org/1999/xlink" xmlns:svgjs="http://svgjs.com/svgjs" width="512.000000pt" height="512.000000pt"><svg version="1.0" xmlns="http://www.w3.org/2000/svg" width="512.000000pt" height="512.000000pt" viewBox="0 0 512.000000 512.000000" preserveAspectRatio="xMidYMid meet">

<g transform="translate(0.000000,512.000000) scale(0.100000,-0.100000)" fill="#000000" stroke="none">
<path d="M712 5109 c-175 -29 -320 -107 -457 -244 -141 -141 -215 -281 -244
-465 -15 -90 -15 -3590 0 -3680 29 -184 103 -324 244 -465 141 -141 281 -215
465 -244 90 -15 3590 -15 3680 0 184 29 324 103 465 244 141 141 215 281 244
465 15 90 15 3590 0 3680 -29 184 -103 324 -244 465 -141 141 -281 215 -465
244 -81 13 -3609 13 -3688 0z m2051 -944 c204 -27 368 -78 552 -173 76 -39
108 -64 202 -158 61 -62 145 -135 186 -163 84 -56 137 -112 209 -221 68 -103
160 -293 156 -322 l-3 -23 -181 -3 -182 -2 -37 67 c-289 529 -929 780 -1502
588 -661 -221 -1018 -934 -798 -1592 221 -661 934 -1018 1592 -798 251 84 480
251 627 459 104 146 206 391 210 501 l1 50 -192 3 -193 2 0 180 0 180 374 0
c287 0 377 -3 382 -12 16 -26 16 -243 0 -364 -48 -364 -187 -656 -436 -917
-414 -433 -1005 -602 -1583 -452 -455 118 -848 447 -1053 880 -252 535 -187
1178 166 1647 89 117 205 234 288 288 31 21 83 60 114 88 96 84 358 202 543
243 177 39 379 48 558 24z"></path>
</g>
</svg><style>@media (prefers-color-scheme: light) { :root { filter: none; } }
</style></svg>